<svg version="1.1" xmlns="http://www.w3.org/2000/svg" viewBox="0 0 1894.293650793652 1351.8531669737808" width="1894.293650793652" height="1351.8531669737808" filter="invert(93%) hue-rotate(180deg)">
  <!-- svg-source:excalidraw -->
  
  <defs>
    <style class="style-fonts">
      @font-face {
        font-family: "Virgil";
        src: url("https://excalidraw.com/Virgil.woff2");
      }
      @font-face {
        font-family: "Cascadia";
        src: url("https://excalidraw.com/Cascadia.woff2");
      }
      @font-face {
        font-family: "Assistant";
        src: url("https://excalidraw.com/Assistant-Regular.woff2");
      }
    </style>
    
  </defs>
  <rect x="0" y="0" width="1894.293650793652" height="1351.8531669737808" fill="#ffffff"></rect><g stroke-linecap="round" transform="translate(903.0808664957684 235.16817462255085) rotate(0 103.3428540910993 145.02860695975167)"><path d="M32 0 C72.74 -2.34, 111.09 -2.17, 174.69 0 M32 0 C74.49 -0.77, 118.06 -1.22, 174.69 0 M174.69 0 C196.37 1.76, 206.64 11.11, 206.69 32 M174.69 0 C194.03 1.67, 208.88 11.32, 206.69 32 M206.69 32 C206.33 97.71, 205.11 166.74, 206.69 258.06 M206.69 32 C206.48 77.7, 206.35 124.58, 206.69 258.06 M206.69 258.06 C208.64 279.39, 195.95 291.2, 174.69 290.06 M206.69 258.06 C205.98 279.66, 198.2 287.9, 174.69 290.06 M174.69 290.06 C129.09 291.8, 85.15 291.55, 32 290.06 M174.69 290.06 C138.49 288.56, 102.45 289.48, 32 290.06 M32 290.06 C11.36 289.26, -0.74 279.53, 0 258.06 M32 290.06 C9.39 290.63, 2.03 277.78, 0 258.06 M0 258.06 C-0.08 211.96, -1.52 161.14, 0 32 M0 258.06 C0.72 208.76, 0.41 158.03, 0 32 M0 32 C-1.6 8.98, 8.89 1.48, 32 0 M0 32 C1.6 10.14, 11.02 0.75, 32 0" stroke="#1e1e1e" stroke-width="2" fill="none"></path></g><g transform="translate(908.0808664957684 320.1967815823025) rotate(0 70.30000305175781 60.000000000000014)"><text x="0" y="19.3125" font-family="Cascadia, Segoe UI Emoji" font-size="20px" fill="#1e1e1e" text-anchor="start" style="white-space: pre;" direction="ltr" dominant-baseline="alphabetic">ID</text><text x="0" y="43.3125" font-family="Cascadia, Segoe UI Emoji" font-size="20px" fill="#1e1e1e" text-anchor="start" style="white-space: pre;" direction="ltr" dominant-baseline="alphabetic">UserName</text><text x="0" y="67.3125" font-family="Cascadia, Segoe UI Emoji" font-size="20px" fill="#1e1e1e" text-anchor="start" style="white-space: pre;" direction="ltr" dominant-baseline="alphabetic">passwordHash</text><text x="0" y="91.3125" font-family="Cascadia, Segoe UI Emoji" font-size="20px" fill="#1e1e1e" text-anchor="start" style="white-space: pre;" direction="ltr" dominant-baseline="alphabetic">passwordSalt</text><text x="0" y="115.3125" font-family="Cascadia, Segoe UI Emoji" font-size="20px" fill="#1e1e1e" text-anchor="start" style="white-space: pre;" direction="ltr" dominant-baseline="alphabetic">Role</text></g><g stroke-linecap="round" transform="translate(978.0015973287915 245.9745408315507) rotate(0 30.400009155273438 17.5)"><path d="M8.75 0 C17.33 1.91, 25.2 0.73, 52.05 0 M8.75 0 C21.8 0.18, 34.61 -0.54, 52.05 0 M52.05 0 C56.24 1.58, 59.96 4.85, 60.8 8.75 M52.05 0 C58.13 -1.89, 60.97 2.51, 60.8 8.75 M60.8 8.75 C60.77 15.33, 61.38 19.46, 60.8 26.25 M60.8 8.75 C61.41 13.61, 60.63 16.4, 60.8 26.25 M60.8 26.25 C60.67 33.97, 58.79 36.33, 52.05 35 M60.8 26.25 C59.01 30.73, 58.37 33.59, 52.05 35 M52.05 35 C42.47 34.34, 31.29 33.2, 8.75 35 M52.05 35 C41.27 36.29, 30.27 34.77, 8.75 35 M8.75 35 C4.01 34.88, 0.24 30.61, 0 26.25 M8.75 35 C3.75 36.06, 0.25 32.86, 0 26.25 M0 26.25 C-0.5 21.07, -1.3 13.28, 0 8.75 M0 26.25 C0.04 20.1, 0.58 15.01, 0 8.75 M0 8.75 C-1.84 3.44, 3.56 0.58, 8.75 0 M0 8.75 C-2.24 2.5, 0.78 -2.11, 8.75 0" stroke="#1e1e1e" stroke-width="2" fill="none"></path></g><g transform="translate(986.059939308772 250.9745408315507) rotate(0 22.34166717529297 12.5)"><text x="22.34166717529297" y="17.52" font-family="Virgil, Segoe UI Emoji" font-size="20px" fill="#1e1e1e" text-anchor="middle" style="white-space: pre;" direction="ltr" dominant-baseline="alphabetic">User</text></g><g stroke-linecap="round" transform="translate(1293.9381684802831 239.32380494617274) rotate(0 82.31110805935339 146.77777014838324)"><path d="M32 0 C69.77 1.92, 109.09 1.29, 132.62 0 M32 0 C68.29 -0.89, 104.54 0.87, 132.62 0 M132.62 0 C155.12 -1.84, 165.87 10.65, 164.62 32 M132.62 0 C151.9 0.2, 163.38 10.05, 164.62 32 M164.62 32 C167.43 115.84, 165.07 198.89, 164.62 261.56 M164.62 32 C165.43 88.15, 165.65 146.19, 164.62 261.56 M164.62 261.56 C164.45 283.72, 155.93 294.63, 132.62 293.56 M164.62 261.56 C165.42 284.56, 154.71 292.3, 132.62 293.56 M132.62 293.56 C111.69 295.55, 87.11 293.05, 32 293.56 M132.62 293.56 C110.23 294.05, 87.06 293.61, 32 293.56 M32 293.56 C11.4 295.55, -0.69 284.42, 0 261.56 M32 293.56 C9.03 292.65, -1.52 283.54, 0 261.56 M0 261.56 C-1.57 187.19, -1.27 112.01, 0 32 M0 261.56 C0.41 182.13, 0.26 102.68, 0 32 M0 32 C-1.4 8.93, 8.96 1.22, 32 0 M0 32 C1.26 11.46, 10.99 -0.97, 32 0" stroke="#1e1e1e" stroke-width="2" fill="none"></path></g><g transform="translate(1298.9381684802831 326.101575094556) rotate(0 35.150001525878906 60)"><text x="0" y="19.3125" font-family="Cascadia, Segoe UI Emoji" font-size="20px" fill="#1e1e1e" text-anchor="start" style="white-space: pre;" direction="ltr" dominant-baseline="alphabetic">ID</text><text x="0" y="43.3125" font-family="Cascadia, Segoe UI Emoji" font-size="20px" fill="#1e1e1e" text-anchor="start" style="white-space: pre;" direction="ltr" dominant-baseline="alphabetic">Author</text><text x="0" y="67.3125" font-family="Cascadia, Segoe UI Emoji" font-size="20px" fill="#1e1e1e" text-anchor="start" style="white-space: pre;" direction="ltr" dominant-baseline="alphabetic">Title</text><text x="0" y="91.3125" font-family="Cascadia, Segoe UI Emoji" font-size="20px" fill="#1e1e1e" text-anchor="start" style="white-space: pre;" direction="ltr" dominant-baseline="alphabetic">Genre</text><text x="0" y="115.3125" font-family="Cascadia, Segoe UI Emoji" font-size="20px" fill="#1e1e1e" text-anchor="start" style="white-space: pre;" direction="ltr" dominant-baseline="alphabetic">Year</text></g><g stroke-linecap="round" transform="translate(1344.160390702505 248.83486417740102) rotate(0 30.400009155273438 17.5)"><path d="M8.75 0 C17.1 0.35, 30.17 0.21, 52.05 0 M8.75 0 C21.55 1.27, 35.37 -0.53, 52.05 0 M52.05 0 C59.13 -0.02, 59.02 3.09, 60.8 8.75 M52.05 0 C56.64 -0.61, 62.2 4.9, 60.8 8.75 M60.8 8.75 C59.65 15.75, 60.01 21.8, 60.8 26.25 M60.8 8.75 C60.15 14.95, 60.58 20.92, 60.8 26.25 M60.8 26.25 C62.78 33.15, 58.58 36.45, 52.05 35 M60.8 26.25 C61.56 30.83, 56.12 33.45, 52.05 35 M52.05 35 C35.75 34.15, 19.18 35.58, 8.75 35 M52.05 35 C41.59 35.97, 30.65 36.42, 8.75 35 M8.75 35 C2.23 36.53, -1.42 31.3, 0 26.25 M8.75 35 C1.4 35.65, 0.65 32.68, 0 26.25 M0 26.25 C-0.68 21.72, 0.92 14.4, 0 8.75 M0 26.25 C-0.09 22.54, -0.63 17.65, 0 8.75 M0 8.75 C-1.71 4.13, 4.01 0.69, 8.75 0 M0 8.75 C0.32 1.95, 1.49 1.9, 8.75 0" stroke="#1e1e1e" stroke-width="2" fill="none"></path></g><g transform="translate(1351.3437326824856 253.83486417740102) rotate(0 23.21666717529297 12.5)"><text x="23.21666717529297" y="17.52" font-family="Virgil, Segoe UI Emoji" font-size="20px" fill="#1e1e1e" text-anchor="middle" style="white-space: pre;" direction="ltr" dominant-baseline="alphabetic">Book</text></g><g stroke-linecap="round" transform="translate(1630.3094627743678 236.6348639594184) rotate(0 70.79997253417969 150.69845302521233)"><path d="M32 0 C51.38 1.19, 67.12 0.9, 109.6 0 M32 0 C61.09 0.32, 88.79 0.63, 109.6 0 M109.6 0 C132.34 -0.01, 142.27 12.31, 141.6 32 M109.6 0 C132.56 0.8, 143.42 11.53, 141.6 32 M141.6 32 C142.88 94.41, 142.22 159.3, 141.6 269.4 M141.6 32 C142.2 92.15, 143.13 152.87, 141.6 269.4 M141.6 269.4 C140.3 291.91, 129.98 299.5, 109.6 301.4 M141.6 269.4 C143.75 291.89, 132.91 303.53, 109.6 301.4 M109.6 301.4 C93.03 303.53, 73.24 303.22, 32 301.4 M109.6 301.4 C92.95 300.35, 76.05 301.76, 32 301.4 M32 301.4 C10.37 302.31, -1.76 289.82, 0 269.4 M32 301.4 C11.39 301.17, -1.87 291.84, 0 269.4 M0 269.4 C-0.44 181.15, -2.03 91.56, 0 32 M0 269.4 C-0.31 175.5, -0.38 80.27, 0 32 M0 32 C-1.42 9.12, 11.73 0.71, 32 0 M0 32 C1.44 10.5, 10.66 1.62, 32 0" stroke="#1e1e1e" stroke-width="2" fill="none"></path></g><g transform="translate(1635.3094627743678 327.33331698463076) rotate(0 41.00833511352539 59.999999999999986)"><text x="0" y="19.3125" font-family="Cascadia, Segoe UI Emoji" font-size="20px" fill="#1e1e1e" text-anchor="start" style="white-space: pre;" direction="ltr" dominant-baseline="alphabetic">ID</text><text x="0" y="43.3125" font-family="Cascadia, Segoe UI Emoji" font-size="20px" fill="#1e1e1e" text-anchor="start" style="white-space: pre;" direction="ltr" dominant-baseline="alphabetic">BookID</text><text x="0" y="67.3125" font-family="Cascadia, Segoe UI Emoji" font-size="20px" fill="#1e1e1e" text-anchor="start" style="white-space: pre;" direction="ltr" dominant-baseline="alphabetic">Rating</text><text x="0" y="91.3125" font-family="Cascadia, Segoe UI Emoji" font-size="20px" fill="#1e1e1e" text-anchor="start" style="white-space: pre;" direction="ltr" dominant-baseline="alphabetic">Comment</text><text x="0" y="115.3125" font-family="Cascadia, Segoe UI Emoji" font-size="20px" fill="#1e1e1e" text-anchor="start" style="white-space: pre;" direction="ltr" dominant-baseline="alphabetic">UserID</text></g><g stroke-linecap="round" transform="translate(1656.2428174700058 246.93966117737773) rotate(0 45.82219780815967 21.666666666666686)"><path d="M10.83 0 C31.88 -2.58, 51.1 -1.9, 80.81 0 M10.83 0 C35.97 0.3, 60.47 0.85, 80.81 0 M80.81 0 C88.16 -1.76, 90.9 4.78, 91.64 10.83 M80.81 0 C89.66 -0.29, 91.37 5.08, 91.64 10.83 M91.64 10.83 C89.92 18.82, 91.58 27.33, 91.64 32.5 M91.64 10.83 C91.34 15.45, 92.47 20.59, 91.64 32.5 M91.64 32.5 C90.42 39.22, 86.49 42.75, 80.81 43.33 M91.64 32.5 C90.96 40.44, 87.74 43.84, 80.81 43.33 M80.81 43.33 C60.55 43.32, 38.6 43.41, 10.83 43.33 M80.81 43.33 C55.66 42.11, 31.5 42.93, 10.83 43.33 M10.83 43.33 C4.88 44.64, 0.85 41.11, 0 32.5 M10.83 43.33 C4.13 41.32, -0.57 40.64, 0 32.5 M0 32.5 C-0.92 23.72, 0.84 18.99, 0 10.83 M0 32.5 C0.32 23.85, 0.06 15.62, 0 10.83 M0 10.83 C1.37 2.77, 1.84 0.02, 10.83 0 M0 10.83 C-1.78 4.6, 2.68 -0.23, 10.83 0" stroke="#1e1e1e" stroke-width="2" fill="none"></path></g><g transform="translate(1670.831681690519 256.1063278440444) rotate(0 31.233333587646484 12.5)"><text x="31.233333587646484" y="17.52" font-family="Virgil, Segoe UI Emoji" font-size="20px" fill="#1e1e1e" text-anchor="middle" style="white-space: pre;" direction="ltr" dominant-baseline="alphabetic">Review</text></g><g stroke-linecap="round" transform="translate(298.9603174603176 182.63491300552602) rotate(0 277.16666666666663 121.50000000000003)"><path d="M32 0 C170.39 1.42, 310.09 1.63, 522.33 0 M32 0 C153.18 1.17, 274.6 1.38, 522.33 0 M522.33 0 C545.2 -1.25, 553.93 8.91, 554.33 32 M522.33 0 C542.03 0.05, 556.05 11.78, 554.33 32 M554.33 32 C554.8 99.99, 555.49 166.51, 554.33 211 M554.33 32 C553.46 83.96, 554.14 138.32, 554.33 211 M554.33 211 C554.32 234.29, 544.39 242.62, 522.33 243 M554.33 211 C555.42 234.35, 544.61 241.34, 522.33 243 M522.33 243 C420.57 243.63, 319.92 244.09, 32 243 M522.33 243 C402.09 241.18, 281.9 241.52, 32 243 M32 243 C11.1 243.42, -1.78 232.5, 0 211 M32 243 C12.62 242.71, -0.01 232.26, 0 211 M0 211 C0.57 146.52, 0.05 81.9, 0 32 M0 211 C-0.27 143.43, 0.31 77.03, 0 32 M0 32 C1.84 10.4, 9.35 -1.88, 32 0 M0 32 C-1.15 10.65, 9.14 -0.16, 32 0" stroke="#1e1e1e" stroke-width="2" fill="none"></path></g><g transform="translate(454.768654354035 187.63491300552602) rotate(0 121.35832977294922 25)"><text x="121.35832977294922" y="17.52" font-family="Virgil, Segoe UI Emoji" font-size="20px" fill="#1e1e1e" text-anchor="middle" style="white-space: pre;" direction="ltr" dominant-baseline="alphabetic">User Controller (Povilas)</text><text x="121.35832977294922" y="42.519999999999996" font-family="Virgil, Segoe UI Emoji" font-size="20px" fill="#1e1e1e" text-anchor="middle" style="white-space: pre;" direction="ltr" dominant-baseline="alphabetic"></text></g><g mask="url(#mask-6r3jXkL92pN8ZpCR6aXiY)" stroke-linecap="round"><g transform="translate(1471.9317203097874 380.7722544152386) rotate(0 71.54601408943313 0.25612789087867327)"><path d="M0.78 -0.93 C24.6 -1, 118.95 0.49, 142.49 0.59 M-0.27 1.19 C23.99 1.26, 120.78 2.28, 144.89 2.16" stroke="#1e1e1e" stroke-width="2" fill="none"></path></g><g transform="translate(1471.9317203097874 380.7722544152386) rotate(0 71.54601408943313 0.25612789087867327)"><path d="M121.36 10.62 C125.94 7.23, 133.82 4.22, 144.89 2.16 M121.36 10.62 C125.91 9.33, 131.57 7.44, 144.89 2.16" stroke="#1e1e1e" stroke-width="2" fill="none"></path></g><g transform="translate(1471.9317203097874 380.7722544152386) rotate(0 71.54601408943313 0.25612789087867327)"><path d="M121.43 -6.48 C126.13 -5.36, 133.99 -3.86, 144.89 2.16 M121.43 -6.48 C125.94 -3.92, 131.59 -1.96, 144.89 2.16" stroke="#1e1e1e" stroke-width="2" fill="none"></path></g></g><mask id="mask-6r3jXkL92pN8ZpCR6aXiY"><rect x="0" y="0" fill="#fff" width="1715.0237484886536" height="481.28451019699594"></rect><rect x="1525.9027336362808" y="369.02838230611735" fill="#000" width="35.150001525878906" height="24" opacity="1"></rect></mask><g transform="translate(1525.902733636281 369.02838230611724) rotate(0 18.339163522264016 12.362119157589547)"><text x="17.575000762939453" y="19.3125" font-family="Cascadia, Segoe UI Emoji" font-size="20px" fill="#1e1e1e" text-anchor="middle" style="white-space: pre;" direction="ltr" dominant-baseline="alphabetic">1:N</text></g><g stroke-linecap="round"><g transform="translate(328.9603174603176 219.63491300552602) rotate(0 249.5 -0.5)"><path d="M0.6 0.36 C83.73 0.08, 414.87 -1.68, 497.82 -1.96 M-0.55 -0.49 C83.02 -0.63, 416.35 -0.98, 499.91 -0.92" stroke="#1e1e1e" stroke-width="2" fill="none"></path></g></g><mask></mask><g transform="translate(330.9603174603176 252.63491300552602) rotate(0 248.34165954589844 12.5)"><text x="0" y="17.52" font-family="Virgil, Segoe UI Emoji" font-size="20px" fill="#1e1e1e" text-anchor="start" style="white-space: pre;" direction="ltr" dominant-baseline="alphabetic">- SignUp (username, password) / output: UserDTO</text></g><g transform="translate(331.9603174603176 289.634913005526) rotate(0 218.11666870117188 12.5)"><text x="0" y="17.52" font-family="Virgil, Segoe UI Emoji" font-size="20px" fill="#1e1e1e" text-anchor="start" style="white-space: pre;" direction="ltr" dominant-baseline="alphabetic">- Login (username, password) / output: JWT</text></g><g transform="translate(330.9603174603176 333.634913005526) rotate(0 203.9499969482422 12.5)"><text x="0" y="17.52" font-family="Virgil, Segoe UI Emoji" font-size="20px" fill="#1e1e1e" text-anchor="start" style="white-space: pre;" direction="ltr" dominant-baseline="alphabetic">- ChangeRole (username, newRole) [admin]</text></g><g stroke-linecap="round" transform="translate(916.043552147063 615.4019888438343) rotate(0 122.22222222222211 92.06349206349205)"><path d="M32 0 C95.34 -1.39, 156.63 -3.16, 212.44 0 M32 0 C98.9 0, 163.66 0.59, 212.44 0 M212.44 0 C232.73 -1.12, 243.65 11.9, 244.44 32 M212.44 0 C232.84 1.64, 245.48 12.12, 244.44 32 M244.44 32 C245.25 75.51, 245.58 119.37, 244.44 152.13 M244.44 32 C243.51 73.86, 245.12 113.26, 244.44 152.13 M244.44 152.13 C245.39 173.8, 233.9 185.5, 212.44 184.13 M244.44 152.13 C242.25 174.63, 235.34 184.71, 212.44 184.13 M212.44 184.13 C168.29 184.3, 126.66 183.41, 32 184.13 M212.44 184.13 C175.12 183.32, 137.04 185.11, 32 184.13 M32 184.13 C10.33 185.49, -0.53 174.08, 0 152.13 M32 184.13 C11.47 182.16, -0.47 174.51, 0 152.13 M0 152.13 C0.78 115.76, 0.89 76.49, 0 32 M0 152.13 C0.55 106.14, 0.71 59.3, 0 32 M0 32 C-0.88 11.23, 10.7 0.99, 32 0 M0 32 C-0.38 11.44, 9.69 -0.9, 32 0" stroke="#1e1e1e" stroke-width="2" fill="none"></path></g><g transform="translate(921.043552147063 671.4654809073263) rotate(0 35.15625 36)"><text x="0" y="19.3125" font-family="Cascadia, Segoe UI Emoji" font-size="20px" fill="#1e1e1e" text-anchor="start" style="white-space: pre;" direction="ltr" dominant-baseline="alphabetic">User</text><text x="0" y="43.3125" font-family="Cascadia, Segoe UI Emoji" font-size="20px" fill="#1e1e1e" text-anchor="start" style="white-space: pre;" direction="ltr" dominant-baseline="alphabetic">Book</text><text x="0" y="67.3125" font-family="Cascadia, Segoe UI Emoji" font-size="20px" fill="#1e1e1e" text-anchor="start" style="white-space: pre;" direction="ltr" dominant-baseline="alphabetic">Review</text></g><g stroke-linecap="round" transform="translate(947.154663258174 626.5130999549453) rotate(0 89.99999999999983 18.285714285714334)"><path d="M9.14 0 C46.73 0.03, 80.85 1.15, 170.86 0 M9.14 0 C40.96 -0.81, 74.53 -1.47, 170.86 0 M170.86 0 C178.71 1.95, 179.54 1.97, 180 9.14 M170.86 0 C178.28 -1.01, 178.02 2.52, 180 9.14 M180 9.14 C179.91 13.33, 178.75 20.32, 180 27.43 M180 9.14 C179.38 13.67, 180.33 17.52, 180 27.43 M180 27.43 C178.02 31.73, 175.92 38.45, 170.86 36.57 M180 27.43 C178.9 34.88, 177.16 35.79, 170.86 36.57 M170.86 36.57 C111.63 35.5, 52.17 36.72, 9.14 36.57 M170.86 36.57 C125.63 38.22, 78.17 37.23, 9.14 36.57 M9.14 36.57 C1.77 34.78, -1.04 34.59, 0 27.43 M9.14 36.57 C4.91 35.15, -1.47 35.8, 0 27.43 M0 27.43 C0.35 22.3, -0.57 14.57, 0 9.14 M0 27.43 C-0.7 23.38, 0.16 17.71, 0 9.14 M0 9.14 C-1.41 2.27, 5.04 0.27, 9.14 0 M0 9.14 C-1.09 4.52, 4.99 -0.51, 9.14 0" stroke="#1e1e1e" stroke-width="2" fill="none"></path></g><g transform="translate(972.7015382581737 632.7988142406596) rotate(0 64.45312499999997 12)"><text x="64.453125" y="19.3125" font-family="Cascadia, Segoe UI Emoji" font-size="20px" fill="#1e1e1e" text-anchor="middle" style="white-space: pre;" direction="ltr" dominant-baseline="alphabetic">Controllers</text></g><g transform="translate(328.9603174603176 377.634913005526) rotate(0 251.875 12.5)"><text x="0" y="17.52" font-family="Virgil, Segoe UI Emoji" font-size="20px" fill="#1e1e1e" text-anchor="start" style="white-space: pre;" direction="ltr" dominant-baseline="alphabetic">- GetAllUsers () [admin] / output: List&lt;UserDTO&gt;</text></g><g stroke-linecap="round" transform="translate(1209.4238884335473 614.1285988943916) rotate(0 122.22222222222211 93.4920634920635)"><path d="M32 0 C70.49 1.29, 108.03 -0.46, 212.44 0 M32 0 C68.7 0.81, 105.25 -0.12, 212.44 0 M212.44 0 C231.8 0.79, 243.19 10.77, 244.44 32 M212.44 0 C233.2 -1.3, 244.04 10.68, 244.44 32 M244.44 32 C243.54 76.81, 242.96 123.12, 244.44 154.98 M244.44 32 C243.3 67.08, 245.21 100.71, 244.44 154.98 M244.44 154.98 C243.65 177.59, 233.52 187.96, 212.44 186.98 M244.44 154.98 C242.69 176.12, 232.42 188.83, 212.44 186.98 M212.44 186.98 C157.27 186.73, 101.35 188.6, 32 186.98 M212.44 186.98 C151.06 188.54, 89.93 188.48, 32 186.98 M32 186.98 C9.18 185.13, 1.05 178.25, 0 154.98 M32 186.98 C9.26 184.71, -0.45 177.08, 0 154.98 M0 154.98 C-2.98 114.6, -0.14 74.22, 0 32 M0 154.98 C-0.47 120.92, 1.03 86.93, 0 32 M0 32 C-0.82 10.58, 12.66 0.8, 32 0 M0 32 C0 8.9, 12.89 -0.86, 32 0" stroke="#1e1e1e" stroke-width="2" fill="none"></path></g><g transform="translate(1214.4238884335473 671.6206623864553) rotate(0 35.15625 36)"><text x="0" y="19.3125" font-family="Cascadia, Segoe UI Emoji" font-size="20px" fill="#1e1e1e" text-anchor="start" style="white-space: pre;" direction="ltr" dominant-baseline="alphabetic">User</text><text x="0" y="43.3125" font-family="Cascadia, Segoe UI Emoji" font-size="20px" fill="#1e1e1e" text-anchor="start" style="white-space: pre;" direction="ltr" dominant-baseline="alphabetic">Book</text><text x="0" y="67.3125" font-family="Cascadia, Segoe UI Emoji" font-size="20px" fill="#1e1e1e" text-anchor="start" style="white-space: pre;" direction="ltr" dominant-baseline="alphabetic">Review</text></g><g stroke-linecap="round" transform="translate(1240.5349995446581 625.2397100055025) rotate(0 89.99999999999983 19)"><path d="M9.5 0 C71.67 0.95, 137.62 0.66, 170.5 0 M9.5 0 C67.14 0.86, 126.12 0.51, 170.5 0 M170.5 0 C176.33 -1.13, 179.65 3.18, 180 9.5 M170.5 0 C178.35 -1.71, 180.89 3.18, 180 9.5 M180 9.5 C179.58 14.75, 181.82 18.74, 180 28.5 M180 9.5 C179.8 16.82, 180.06 23.39, 180 28.5 M180 28.5 C178.47 34.66, 175.66 39.61, 170.5 38 M180 28.5 C180.17 33.7, 178.04 38.33, 170.5 38 M170.5 38 C132.67 37.85, 95.1 38.74, 9.5 38 M170.5 38 C123.83 36.74, 79.18 38.63, 9.5 38 M9.5 38 C1.95 36.02, -0.4 35.5, 0 28.5 M9.5 38 C3.7 40.18, -1.51 32.75, 0 28.5 M0 28.5 C-0.48 23.01, -0.71 16.93, 0 9.5 M0 28.5 C-0.54 22.11, 0.8 16.19, 0 9.5 M0 9.5 C0 1.63, 5.1 -0.75, 9.5 0 M0 9.5 C-1.48 3.36, 1.72 -0.53, 9.5 0" stroke="#1e1e1e" stroke-width="2" fill="none"></path></g><g transform="translate(1283.6599995446581 632.2397100055025) rotate(0 46.875 12)"><text x="46.875" y="19.3125" font-family="Cascadia, Segoe UI Emoji" font-size="20px" fill="#1e1e1e" text-anchor="middle" style="white-space: pre;" direction="ltr" dominant-baseline="alphabetic">Services</text></g><g stroke-linecap="round" transform="translate(10 448.13491300552624) rotate(0 415.7301587301588 178)"><path d="M32 0 C275.7 0.39, 519.71 -0.06, 799.46 0 M32 0 C337.83 2.92, 644.41 2.76, 799.46 0 M799.46 0 C819.7 -0.09, 829.47 9.75, 831.46 32 M799.46 0 C821.99 -1.16, 829.66 12.71, 831.46 32 M831.46 32 C833.07 146.52, 831.51 263.06, 831.46 324 M831.46 32 C830.89 125.11, 829.8 219.16, 831.46 324 M831.46 324 C829.59 344.17, 818.91 354.1, 799.46 356 M831.46 324 C830.58 346.45, 820.71 357.76, 799.46 356 M799.46 356 C588.22 353.64, 377.63 354.77, 32 356 M799.46 356 C612.61 355.85, 426.21 355.59, 32 356 M32 356 C9.57 355.28, 1.54 346.2, 0 324 M32 356 C11.33 357.71, -0.37 346.48, 0 324 M0 324 C2.77 223.29, 1.12 122.77, 0 32 M0 324 C0.25 239.89, -0.04 153.68, 0 32 M0 32 C-0.72 10.74, 11.25 -1.85, 32 0 M0 32 C-1.47 12.04, 12.69 -1.55, 32 0" stroke="#1e1e1e" stroke-width="2" fill="none"></path></g><g transform="translate(296.8968304830885 453.13491300552624) rotate(0 128.8333282470703 12.5)"><text x="128.8333282470703" y="17.52" font-family="Virgil, Segoe UI Emoji" font-size="20px" fill="#1e1e1e" text-anchor="middle" style="white-space: pre;" direction="ltr" dominant-baseline="alphabetic">Book Controller (Taofeek)</text></g><g stroke-linecap="round" transform="translate(339.02225579155845 832.4493192642456) rotate(0 245.5 121.50000000000006)"><path d="M32 0 C134.89 2.44, 237.45 1.81, 459 0 M32 0 C161.67 -2.31, 289.86 -1.9, 459 0 M459 0 C479.41 -0.76, 491.31 9.14, 491 32 M459 0 C481.39 -0.19, 493.2 10.9, 491 32 M491 32 C491.24 102.8, 492.06 170.87, 491 211 M491 32 C490.09 68.7, 490.73 103.64, 491 211 M491 211 C490.55 234.26, 478.94 244.05, 459 243 M491 211 C491.84 232.71, 481.81 242.12, 459 243 M459 243 C367.1 242.27, 276.33 241.98, 32 243 M459 243 C331.65 244.25, 205.49 243.95, 32 243 M32 243 C11.56 242.93, 0.79 232.76, 0 211 M32 243 C9.59 242.75, 2.08 234.31, 0 211 M0 211 C1.12 165.87, 0.59 125.74, 0 32 M0 211 C0.23 166.55, -0.75 120.53, 0 32 M0 32 C0.94 10.69, 11.73 0.42, 32 0 M0 32 C-1.58 11.78, 9.28 -0.87, 32 0" stroke="#1e1e1e" stroke-width="2" fill="none"></path></g><g transform="translate(470.84725273980064 837.4493192642456) rotate(0 113.67500305175781 12.5)"><text x="113.67500305175781" y="17.52" font-family="Virgil, Segoe UI Emoji" font-size="20px" fill="#1e1e1e" text-anchor="middle" style="white-space: pre;" direction="ltr" dominant-baseline="alphabetic">Review Controller (Vish)</text></g><g stroke-linecap="round"><g transform="translate(365.6889224582252 869.4493192642456) rotate(0 221.5 0)"><path d="M-0.24 0.03 C73.64 0.24, 369.71 1.18, 443.79 1.01 M-1.82 -1 C71.93 -1.09, 368.94 -0.71, 443.25 -0.58" stroke="#1e1e1e" stroke-width="2" fill="none"></path></g></g><mask></mask><g transform="translate(379.6889224582252 899.4493192642456) rotate(0 70.81666564941406 12.5)"><text x="0" y="17.52" font-family="Virgil, Segoe UI Emoji" font-size="20px" fill="#1e1e1e" text-anchor="start" style="white-space: pre;" direction="ltr" dominant-baseline="alphabetic">- AddReview ()</text></g><g transform="translate(380.6889224582252 936.4493192642456) rotate(0 125.81666564941406 12.5)"><text x="0" y="17.52" font-family="Virgil, Segoe UI Emoji" font-size="20px" fill="#1e1e1e" text-anchor="start" style="white-space: pre;" direction="ltr" dominant-baseline="alphabetic">- DeleteReview () [admin]</text></g><g transform="translate(379.6889224582252 980.4493192642456) rotate(0 88.42500305175781 12.5)"><text x="0" y="17.52" font-family="Virgil, Segoe UI Emoji" font-size="20px" fill="#1e1e1e" text-anchor="start" style="white-space: pre;" direction="ltr" dominant-baseline="alphabetic">- UpdateReview ()</text></g><g transform="translate(377.6889224582252 1024.4493192642456) rotate(0 77.31666564941406 12.5)"><text x="0" y="17.52" font-family="Virgil, Segoe UI Emoji" font-size="20px" fill="#1e1e1e" text-anchor="start" style="white-space: pre;" direction="ltr" dominant-baseline="alphabetic">- GetReviews ()</text></g><g stroke-linecap="round"><g transform="translate(193.8533792680986 487.4325278366311) rotate(0 244 0.5)"><path d="M0.04 0.95 C81.44 1.07, 406.27 -0.19, 487.63 -0.15 M-1.39 0.4 C79.88 0.7, 404.99 0.42, 486.5 0.78" stroke="#1e1e1e" stroke-width="2" fill="none"></path></g></g><mask></mask><g transform="translate(45.455849783761266 507.3452304658437) rotate(0 109.11666870117188 12.5)"><text x="0" y="17.52" font-family="Virgil, Segoe UI Emoji" font-size="20px" fill="#1e1e1e" text-anchor="start" style="white-space: pre;" direction="ltr" dominant-baseline="alphabetic">- AddBook (BookDTO)</text></g><g transform="translate(48.095864432198766 541.3452304658438) rotate(0 167.35833740234375 12.5)"><text x="0" y="17.52" font-family="Virgil, Segoe UI Emoji" font-size="20px" fill="#1e1e1e" text-anchor="start" style="white-space: pre;" direction="ltr" dominant-baseline="alphabetic">- EditBook (id, BookDTO) [admin]</text></g><g stroke-linecap="round"><g transform="translate(875.2300600835715 72.46548090732557) rotate(0 -0.7142857142857224 545.7142857142858)"><path d="M-0.86 0.81 C-0.95 182.99, -1.3 910.73, -1.32 1092.57 M0.89 0.19 C0.72 182.1, -1.81 909.46, -2.21 1091.04" stroke="#e03131" stroke-width="2" fill="none"></path></g></g><mask></mask><g stroke-linecap="round"><g transform="translate(915.2300600835715 573.894052335897) rotate(0 475.71428571428567 0.7142857142857224)"><path d="M-0.84 -0.2 C157.94 0.11, 793.08 0.42, 951.98 0.81 M0.92 -1.35 C159.66 -0.8, 792.74 1.76, 951.32 2.02" stroke="#e03131" stroke-width="2" fill="none"></path></g></g><mask></mask><g transform="translate(48.42583574567533 578.3452304658438) rotate(0 125.68333435058594 12.5)"><text x="0" y="17.52" font-family="Virgil, Segoe UI Emoji" font-size="20px" fill="#1e1e1e" text-anchor="start" style="white-space: pre;" direction="ltr" dominant-baseline="alphabetic">- DeleteBook (id) [admin]</text></g><g stroke-linecap="round" transform="translate(1500.566797892253 613.8570970807757) rotate(0 162.39404352806395 147.1666666666668)"><path d="M32 0 C109.29 -1.51, 183.28 -1.54, 292.79 0 M32 0 C122.54 0.07, 214.6 -1.06, 292.79 0 M292.79 0 C313.1 0.73, 324.72 11.97, 324.79 32 M292.79 0 C312.82 1.22, 326.71 9.12, 324.79 32 M324.79 32 C325.53 105.07, 326.94 180.46, 324.79 262.33 M324.79 32 C323.74 87.74, 324.67 144.4, 324.79 262.33 M324.79 262.33 C324.96 284.93, 312.41 293.45, 292.79 294.33 M324.79 262.33 C325.6 284.16, 313.99 292.27, 292.79 294.33 M292.79 294.33 C219.18 294.54, 145.28 292.48, 32 294.33 M292.79 294.33 C227.09 294.38, 162.14 294.07, 32 294.33 M32 294.33 C10.84 293.6, 1.01 282.62, 0 262.33 M32 294.33 C9.32 294.7, 1.22 284.08, 0 262.33 M0 262.33 C0.32 197.67, 2.02 131.83, 0 32 M0 262.33 C0.98 213.03, 0.15 164.68, 0 32 M0 32 C-0.01 10.84, 10.4 1.07, 32 0 M0 32 C-0.44 12.62, 8.86 0.74, 32 0" stroke="#1e1e1e" stroke-width="2" fill="none"></path></g><g transform="translate(1505.566797892253 665.0237637474424) rotate(0 152.31666564941412 96)"><text x="0" y="19.3125" font-family="Cascadia, Segoe UI Emoji" font-size="20px" fill="#1e1e1e" text-anchor="start" style="white-space: pre;" direction="ltr" dominant-baseline="alphabetic">AddBook</text><text x="0" y="43.3125" font-family="Cascadia, Segoe UI Emoji" font-size="20px" fill="#1e1e1e" text-anchor="start" style="white-space: pre;" direction="ltr" dominant-baseline="alphabetic">EditBook</text><text x="0" y="67.3125" font-family="Cascadia, Segoe UI Emoji" font-size="20px" fill="#1e1e1e" text-anchor="start" style="white-space: pre;" direction="ltr" dominant-baseline="alphabetic">DeleteBook</text><text x="0" y="91.3125" font-family="Cascadia, Segoe UI Emoji" font-size="20px" fill="#1e1e1e" text-anchor="start" style="white-space: pre;" direction="ltr" dominant-baseline="alphabetic">SearchBooks</text><text x="0" y="115.3125" font-family="Cascadia, Segoe UI Emoji" font-size="20px" fill="#1e1e1e" text-anchor="start" style="white-space: pre;" direction="ltr" dominant-baseline="alphabetic">FilterByRating</text><text x="0" y="139.3125" font-family="Cascadia, Segoe UI Emoji" font-size="20px" fill="#1e1e1e" text-anchor="start" style="white-space: pre;" direction="ltr" dominant-baseline="alphabetic">FilterByPublication</text><text x="0" y="163.3125" font-family="Cascadia, Segoe UI Emoji" font-size="20px" fill="#1e1e1e" text-anchor="start" style="white-space: pre;" direction="ltr" dominant-baseline="alphabetic">SortBooksByNumberOfReviews</text><text x="0" y="187.3125" font-family="Cascadia, Segoe UI Emoji" font-size="20px" fill="#1e1e1e" text-anchor="start" style="white-space: pre;" direction="ltr" dominant-baseline="alphabetic"></text></g><g stroke-linecap="round" transform="translate(1571.4619050760193 623.836642163413) rotate(0 86.62002945508073 18.19661266568471)"><path d="M9.1 0 C56.68 0.48, 102.78 -1.35, 164.14 0 M9.1 0 C66.22 1.46, 124.33 1.74, 164.14 0 M164.14 0 C169.07 1.06, 174.91 1.69, 173.24 9.1 M164.14 0 C170.75 1.5, 174.47 2.31, 173.24 9.1 M173.24 9.1 C172.3 12.11, 173.79 16.61, 173.24 27.29 M173.24 9.1 C173.49 14.44, 172.63 18.22, 173.24 27.29 M173.24 27.29 C173.94 33.79, 170.1 34.6, 164.14 36.39 M173.24 27.29 C172.9 32.08, 168.79 37.46, 164.14 36.39 M164.14 36.39 C102.15 34.04, 41.96 33.92, 9.1 36.39 M164.14 36.39 C112.02 35.99, 60.22 35.83, 9.1 36.39 M9.1 36.39 C1.86 36.71, 1.06 33.72, 0 27.29 M9.1 36.39 C2.64 34.49, -1.77 31.6, 0 27.29 M0 27.29 C-1.63 21.14, -1.39 17.04, 0 9.1 M0 27.29 C0.01 22.48, -0.11 18, 0 9.1 M0 9.1 C-0.38 4.73, 1.46 0.65, 9.1 0 M0 9.1 C0.66 2.64, 2.45 -1.97, 9.1 0" stroke="#1e1e1e" stroke-width="2" fill="none"></path></g><g transform="translate(1587.7694345311002 630.0332548290976) rotate(0 70.3125 12)"><text x="70.3125" y="19.3125" font-family="Cascadia, Segoe UI Emoji" font-size="20px" fill="#1e1e1e" text-anchor="middle" style="white-space: pre;" direction="ltr" dominant-baseline="alphabetic">BookServices</text></g><g transform="translate(50.09581865583158 615.3452304658438) rotate(0 293.85833740234375 12.5)"><text x="0" y="17.52" font-family="Virgil, Segoe UI Emoji" font-size="20px" fill="#1e1e1e" text-anchor="start" style="white-space: pre;" direction="ltr" dominant-baseline="alphabetic">- SearchForBook (string keyword) / output: List&lt;BookDTO&gt;</text></g><g transform="translate(51.21582903180814 651.3452304658438) rotate(0 372.4916687011719 12.5)"><text x="0" y="17.52" font-family="Virgil, Segoe UI Emoji" font-size="20px" fill="#1e1e1e" text-anchor="start" style="white-space: pre;" direction="ltr" dominant-baseline="alphabetic">- GetBooksByRating (bool ascending, int amount) / output: List&lt;BookDTO&gt;</text></g><g transform="translate(50.32592119489408 687.3452304658438) rotate(0 273.5249938964844 12.5)"><text x="0" y="17.52" font-family="Virgil, Segoe UI Emoji" font-size="20px" fill="#1e1e1e" text-anchor="start" style="white-space: pre;" direction="ltr" dominant-baseline="alphabetic">- GetBooksByYear (int year) / output: List&lt;BookDTO&gt;</text></g><g stroke-linecap="round" transform="translate(1294.934923686679 10) rotate(0 77.73967948792483 107.1374199744036)"><path d="M32 0 C52.19 0.39, 74.42 -2.62, 123.48 0 M32 0 C56.72 0.53, 81.89 0.25, 123.48 0 M123.48 0 C144.45 1.79, 155.9 12.56, 155.48 32 M123.48 0 C144.1 2.27, 153.61 8.45, 155.48 32 M155.48 32 C157.77 64.6, 154.85 98.82, 155.48 182.27 M155.48 32 C155.44 63.27, 155.16 95.6, 155.48 182.27 M155.48 182.27 C155.49 205.03, 143.16 214.82, 123.48 214.27 M155.48 182.27 C156.49 202.51, 145.1 212.79, 123.48 214.27 M123.48 214.27 C97.79 213.63, 72.56 213.21, 32 214.27 M123.48 214.27 C101.31 213.96, 79.52 214.48, 32 214.27 M32 214.27 C10.61 213.86, 1.53 203.48, 0 182.27 M32 214.27 C9.34 214.6, -1.03 205.37, 0 182.27 M0 182.27 C-1.49 126.72, -1.2 68.08, 0 32 M0 182.27 C-0.76 134.19, -0.61 85.03, 0 32 M0 32 C-2 12.12, 11.45 -0.91, 32 0 M0 32 C0.32 12.94, 10.77 1.13, 32 0" stroke="#1e1e1e" stroke-width="2" fill="none"></path></g><g transform="translate(1299.934923686679 69.72057334375671) rotate(0 34.70000076293945 47.41684663064689)"><text x="0" y="19.077871886549335" font-family="Cascadia, Segoe UI Emoji" font-size="19.757019429436205px" fill="#1e1e1e" text-anchor="start" style="white-space: pre;" direction="ltr" dominant-baseline="alphabetic">Author</text><text x="0" y="42.78629520187278" font-family="Cascadia, Segoe UI Emoji" font-size="19.757019429436205px" fill="#1e1e1e" text-anchor="start" style="white-space: pre;" direction="ltr" dominant-baseline="alphabetic">Title</text><text x="0" y="66.49471851719623" font-family="Cascadia, Segoe UI Emoji" font-size="19.757019429436205px" fill="#1e1e1e" text-anchor="start" style="white-space: pre;" direction="ltr" dominant-baseline="alphabetic">Genre</text><text x="0" y="90.20314183251968" font-family="Cascadia, Segoe UI Emoji" font-size="19.757019429436205px" fill="#1e1e1e" text-anchor="start" style="white-space: pre;" direction="ltr" dominant-baseline="alphabetic">Year</text></g><g stroke-linecap="round" transform="translate(1314.7899752689373 22.252651958437554) rotate(0 58.02481617782655 17.492672001297166)"><path d="M8.75 0 C43.59 1.75, 78.65 1.39, 107.3 0 M8.75 0 C38.45 1.13, 68.72 1.18, 107.3 0 M107.3 0 C112.51 1.98, 114.43 0.99, 116.05 8.75 M107.3 0 C111.23 0.84, 117.84 4.92, 116.05 8.75 M116.05 8.75 C114.42 12.79, 115.64 20.95, 116.05 26.24 M116.05 8.75 C116.18 13.39, 115.45 17.02, 116.05 26.24 M116.05 26.24 C116.93 31.11, 113.39 33.7, 107.3 34.99 M116.05 26.24 C115.58 31.41, 114.07 34.84, 107.3 34.99 M107.3 34.99 C81.46 34.05, 56.8 33.15, 8.75 34.99 M107.3 34.99 C74.63 35.6, 42.78 35.74, 8.75 34.99 M8.75 34.99 C1.76 35.27, -0.89 33.6, 0 26.24 M8.75 34.99 C4.6 35.02, -0.8 30.38, 0 26.24 M0 26.24 C0.48 22, 1.23 15.69, 0 8.75 M0 26.24 C-0.99 21.24, 0.22 14.57, 0 8.75 M0 8.75 C0.28 4.89, 3 0.98, 8.75 0 M0 8.75 C-0.93 0.85, 3.19 -0.39, 8.75 0" stroke="#1e1e1e" stroke-width="2" fill="none"></path></g><g transform="translate(1327.089792972643 27.397186816337097) rotate(0 45.724998474121094 12.34813714339763)"><text x="45.724998474121094" y="17.307149020186117" font-family="Virgil, Segoe UI Emoji" font-size="19.757019429436205px" fill="#1e1e1e" text-anchor="middle" style="white-space: pre;" direction="ltr" dominant-baseline="alphabetic">BookDTO</text></g><g transform="translate(51.28583635602689 722.3452304658438) rotate(0 378.1916809082031 12.5)"><text x="0" y="17.52" font-family="Virgil, Segoe UI Emoji" font-size="20px" fill="#1e1e1e" text-anchor="start" style="white-space: pre;" direction="ltr" dominant-baseline="alphabetic">- GetBooksByReviews (bool ascending, int amount) / output: List&lt;BookDTO&gt;</text></g><g stroke-linecap="round" transform="translate(902.7603205120754 46.892020331488624) rotate(0 103.34285409109933 87.17146410260884)"><path d="M32 0 C85.43 -1.41, 139.63 -2.41, 174.69 0 M32 0 C71.2 0.22, 111.25 -1, 174.69 0 M174.69 0 C195.17 1.59, 205.41 10.34, 206.69 32 M174.69 0 C193.81 0.8, 205.08 11.22, 206.69 32 M206.69 32 C206.36 66.57, 207.21 99.72, 206.69 142.34 M206.69 32 C206.22 72.34, 205.53 111.12, 206.69 142.34 M206.69 142.34 C206.68 162.42, 197.71 175.59, 174.69 174.34 M206.69 142.34 C206.99 165.82, 196.24 172.39, 174.69 174.34 M174.69 174.34 C118.91 174.52, 62.39 173.7, 32 174.34 M174.69 174.34 C126.67 173.11, 79.8 172.83, 32 174.34 M32 174.34 C10.68 176.29, -1.03 162.79, 0 142.34 M32 174.34 C12.59 176.01, -1.29 164.11, 0 142.34 M0 142.34 C-1.8 105.17, -1.94 67.92, 0 32 M0 142.34 C-0.28 117.26, 0.01 91.2, 0 32 M0 32 C1.29 9.12, 12.14 -1.1, 32 0 M0 32 C-0.99 9.99, 11.19 -1.26, 32 0" stroke="#1e1e1e" stroke-width="2" fill="none"></path></g><g transform="translate(907.7603205120754 110.06348443409746) rotate(0 46.875 24)"><text x="0" y="19.3125" font-family="Cascadia, Segoe UI Emoji" font-size="20px" fill="#1e1e1e" text-anchor="start" style="white-space: pre;" direction="ltr" dominant-baseline="alphabetic">UserName</text><text x="0" y="43.3125" font-family="Cascadia, Segoe UI Emoji" font-size="20px" fill="#1e1e1e" text-anchor="start" style="white-space: pre;" direction="ltr" dominant-baseline="alphabetic">Role</text></g><g stroke-linecap="round" transform="translate(951.6810513450985 58.698386540488485) rotate(0 51.40000915527341 20.92857142857143)"><path d="M10.46 0 C34.42 0.3, 59.89 0.44, 92.34 0 M10.46 0 C39.36 1.32, 68.47 0.36, 92.34 0 M92.34 0 C97.39 0.7, 101.41 3.97, 102.8 10.46 M92.34 0 C99.52 -0.84, 104.91 3.57, 102.8 10.46 M102.8 10.46 C104.15 16.9, 101.03 23.46, 102.8 31.39 M102.8 10.46 C102.6 16.8, 103.44 25.01, 102.8 31.39 M102.8 31.39 C103.07 40.23, 99.51 40.16, 92.34 41.86 M102.8 31.39 C105.09 38.56, 100.33 43.24, 92.34 41.86 M92.34 41.86 C70.25 43.32, 45.16 39.68, 10.46 41.86 M92.34 41.86 C67.48 42.63, 42.09 41.22, 10.46 41.86 M10.46 41.86 C5.16 43.31, -1.12 38.75, 0 31.39 M10.46 41.86 C4.54 42.59, -1.82 36.71, 0 31.39 M0 31.39 C-1.13 24.87, 0.68 17.09, 0 10.46 M0 31.39 C0.55 22.51, 0.65 14.63, 0 10.46 M0 10.46 C-0.86 2.9, 3.95 -1.1, 10.46 0 M0 10.46 C0.91 4.72, 2.74 -1.55, 10.46 0" stroke="#1e1e1e" stroke-width="2" fill="none"></path></g><g transform="translate(957.6410962059383 67.12695796905992) rotate(0 45.43996429443362 12.5)"><text x="45.439964294433594" y="17.52" font-family="Virgil, Segoe UI Emoji" font-size="20px" fill="#1e1e1e" text-anchor="middle" style="white-space: pre;" direction="ltr" dominant-baseline="alphabetic">UserDTO</text></g><g transform="translate(53.63591875348783 759.3452304658438) rotate(0 318.0249938964844 12.5)"><text x="0" y="17.52" font-family="Virgil, Segoe UI Emoji" font-size="20px" fill="#1e1e1e" text-anchor="start" style="white-space: pre;" direction="ltr" dominant-baseline="alphabetic">- GetBookRecommendation (string username) / output: BookDTO</text></g><g mask="url(#mask-rMPkI9dSwvWSCtnf3HL1N)" stroke-linecap="round"><g transform="translate(1132.3729172264284 462.4654809073262) rotate(0 238.0790187435146 44.19011908525593)"><path d="M-0.7 -0.73 C10.46 -0.26, 56.24 -11.65, 67.28 2.22 C78.32 16.1, 8.95 68.78, 65.53 82.5 C122.12 96.22, 349.67 97.2, 406.78 84.54 C463.89 71.88, 396.65 19.56, 408.19 6.55 C419.73 -6.45, 464.58 6.25, 476.03 6.54 M1.14 1.5 C12.13 1.68, 55.82 -12.68, 66.41 0.52 C77 13.72, 7.93 66.64, 64.67 80.72 C121.41 94.81, 349.26 97.38, 406.84 85.03 C464.43 72.68, 398.51 19.33, 410.18 6.64 C421.85 -6.06, 465.66 8.69, 476.85 8.84" stroke="#1e1e1e" stroke-width="2" fill="none"></path></g><g transform="translate(1132.3729172264284 462.4654809073262) rotate(0 238.0790187435146 44.19011908525593)"><path d="M452.25 13.29 C459.08 12.21, 469.64 10.23, 476.85 8.84 M452.25 13.29 C461.53 11.31, 470.5 9.56, 476.85 8.84" stroke="#1e1e1e" stroke-width="2" fill="none"></path></g><g transform="translate(1132.3729172264284 462.4654809073262) rotate(0 238.0790187435146 44.19011908525593)"><path d="M455.15 -3.56 C460.95 0.84, 470.57 4.35, 476.85 8.84 M455.15 -3.56 C463.25 0.99, 471.09 5.81, 476.85 8.84" stroke="#1e1e1e" stroke-width="2" fill="none"></path></g></g><mask id="mask-rMPkI9dSwvWSCtnf3HL1N"><rect x="0" y="0" fill="#fff" width="1709.5157743692857" height="648.1797666216116"></rect><rect x="1356.3968819651454" y="543.3224285273229" fill="#000" width="35.150001525878906" height="24" opacity="1"></rect></mask><g transform="translate(1356.3968819651454 543.3224285273229) rotate(0 14.055054004797455 -36.666828534740745)"><text x="17.575000762939453" y="19.3125" font-family="Cascadia, Segoe UI Emoji" font-size="20px" fill="#1e1e1e" text-anchor="middle" style="white-space: pre;" direction="ltr" dominant-baseline="alphabetic">1:N</text></g><g stroke-linecap="round"><g transform="translate(913.7234103909515 946.5201047789026) rotate(0 475.7142857142857 0.7142857142857224)"><path d="M-0.37 -0.77 C158.09 -0.18, 792.4 1.97, 951.1 2.5 M1.63 1.44 C159.88 1.81, 791.71 1.08, 949.98 0.95" stroke="#e03131" stroke-width="2" fill="none"></path></g></g><mask></mask><g stroke-linecap="round" transform="translate(944.2936507936521 1011.8531669737813) rotate(0 469.99999999999994 164.99999999999983)"><path d="M32 0 C266.86 -0.93, 500.51 -0.72, 908 0 M32 0 C306.26 -3.1, 580.68 -3.11, 908 0 M908 0 C930.46 1.14, 938.48 11.73, 940 32 M908 0 C927.74 -0.86, 940.92 11.34, 940 32 M940 32 C938.1 116.36, 938.66 203.87, 940 298 M940 32 C940.89 118.32, 940.62 205.15, 940 298 M940 298 C940.94 318.29, 929.24 330.5, 908 330 M940 298 C938.8 317.91, 927.78 328.77, 908 330 M908 330 C731.56 329.19, 554.36 328.96, 32 330 M908 330 C661.78 332.03, 415.99 332.18, 32 330 M32 330 C10.69 330.94, 0.11 317.98, 0 298 M32 330 C11.92 330.62, 0.32 318.96, 0 298 M0 298 C0.34 196.04, -0.14 90.38, 0 32 M0 298 C1.62 208.79, 1.28 120.47, 0 32 M0 32 C1.57 9.27, 10.7 0.1, 32 0 M0 32 C-0.53 10.05, 10.17 -0.97, 32 0" stroke="#2f9e44" stroke-width="2" fill="none"></path></g><g transform="translate(1344.17698209248 1016.8531669737813) rotate(0 70.11666870117188 17.5)"><text x="70.11666870117188" y="24.528" font-family="Virgil, Segoe UI Emoji" font-size="28px" fill="#2f9e44" text-anchor="middle" style="white-space: pre;" direction="ltr" dominant-baseline="alphabetic">Convention</text></g><g stroke-linecap="round"><g transform="translate(1014.2936507936521 1063.5198336404478) rotate(0 396.6666666666667 0)"><path d="M-0.02 0.26 C132.44 0.61, 662.09 1.11, 794.33 1.04 M-1.49 -0.66 C130.93 -0.52, 661.54 -0.82, 793.91 -0.54" stroke="#69db7c" stroke-width="2" fill="none"></path></g></g><mask></mask><g transform="translate(985.2853194948239 1097.686500307114) rotate(0 262.3999938964844 16.799999999999955)"><text x="0" y="27.0375" font-family="Cascadia, Segoe UI Emoji" font-size="28px" fill="#69db7c" text-anchor="start" style="white-space: pre;" direction="ltr" dominant-baseline="alphabetic">- DO NOT use primary constructor</text></g></svg>